# xmcd
#
# Track frame offsets:
#	150
#	12298
#	31159
#	47569
#	66829
#	83536
#	99999
#	124634
#	138340
#	162006
#	176536
#	191629
#
# Disc length: 2852 seconds
#
# Revision: 1
# Processed by: cddbd v1.5.1PL2 Copyright (c) Steve Scherf et al.
# Submitted via: audiograbber 1.83.01
#
DISCID=8b0b220c
DTITLE=Caps and Hats - One Way Out
DYEAR=2006
DGENRE=Blues
TTITLE0=Between A Woman And A Man
TTITLE1=Motorhead Baby
TTITLE2=He's Got A Way With Women
TTITLE3=One Way Out
TTITLE4=Whiskey Blues
TTITLE5=Sinner's Prayer
TTITLE6=I Ain't Superstitious
TTITLE7=What Am I Doin' 
TTITLE8=Dangerous Mood
TTITLE9=I'm Tore Down
TTITLE10=I Won't Let You Put Me Down
TTITLE11=Dancing Shoes
EXTD=Band from Bretagne, France
EXTT0=
EXTT1=
EXTT2=
EXTT3=
EXTT4=
EXTT5=
EXTT6=
EXTT7=
EXTT8=
EXTT9=
EXTT10=
EXTT11=
PLAYORDER=
